<?xml version="1.0" standalone="no"?>
<!DOCTYPE svg PUBLIC "-//W3C//DTD SVG 20010904//EN"
 "http://www.w3.org/TR/2001/REC-SVG-20010904/DTD/svg10.dtd">
<svg version="1.0" xmlns="http://www.w3.org/2000/svg"
 width="480.000000pt" height="480.000000pt" viewBox="0 0 480.000000 480.000000"
 preserveAspectRatio="xMidYMid meet">
<metadata>
Created by potrace 1.11, written by Peter Selinger 2001-2013
</metadata>
<g transform="translate(0.000000,480.000000) scale(0.100000,-0.100000)"
fill="#000000" stroke="none">
<path d="M2384 4357 c-9 -10 -162 -154 -263 -247 -103 -95 -174 -161 -290
-270 -74 -69 -143 -133 -154 -142 -20 -18 -187 -174 -337 -314 -41 -39 -102
-96 -135 -126 -33 -31 -76 -71 -96 -89 -20 -19 -83 -77 -139 -129 -139 -129
-150 -140 -281 -261 -63 -59 -130 -121 -149 -139 -91 -84 -130 -123 -130 -132
0 -5 43 -57 95 -114 l95 -104 0 -945 0 -945 1800 0 1800 0 0 946 0 945 48 52
c27 29 66 72 88 96 21 24 45 50 51 57 13 13 8 18 -147 164 -48 44 -211 196
-292 269 l-48 45 0 463 0 463 -250 0 -250 0 0 -225 c0 -124 -3 -225 -6 -225
-3 0 -11 6 -18 13 -7 6 -64 59 -126 117 -62 58 -125 116 -140 130 -15 14 -78
72 -140 130 -62 58 -125 116 -140 130 -26 24 -258 240 -290 270 -9 8 -44 41
-77 73 -34 31 -63 57 -65 57 -1 -1 -8 -6 -14 -13z"/>
</g>
</svg>
